<svg width="16" height="17" viewBox="0 0 16 17" fill="none" xmlns="http://www.w3.org/2000/svg">
<g clip-path="url(#clip0_50_239)">
<path d="M12.6666 6.116V5.16666C12.6666 3.92899 12.1749 2.742 11.2997 1.86683C10.4246 0.991662 9.2376 0.499996 7.99992 0.499996C6.76224 0.499996 5.57526 0.991662 4.70009 1.86683C3.82492 2.742 3.33325 3.92899 3.33325 5.16666V6.116C2.73949 6.37513 2.23411 6.80168 1.87892 7.34347C1.52372 7.88526 1.3341 8.51882 1.33325 9.16666V13.1667C1.33431 14.0504 1.68584 14.8976 2.31073 15.5225C2.93562 16.1474 3.78286 16.4989 4.66658 16.5H11.3333C12.217 16.4989 13.0642 16.1474 13.6891 15.5225C14.314 14.8976 14.6655 14.0504 14.6666 13.1667V9.16666C14.6657 8.51882 14.4761 7.88526 14.1209 7.34347C13.7657 6.80168 13.2603 6.37513 12.6666 6.116ZM4.66658 5.16666C4.66659 4.28261 5.01777 3.43476 5.6429 2.80964C6.26802 2.18452 7.11586 1.83333 7.99992 1.83333C8.88397 1.83333 9.73182 2.18452 10.3569 2.80964C10.9821 3.43476 11.3333 4.28261 11.3333 5.16666V5.83333H4.66658V5.16666ZM13.3333 13.1667C13.3333 13.6971 13.1225 14.2058 12.7475 14.5809C12.3724 14.9559 11.8637 15.1667 11.3333 15.1667H4.66658C4.13615 15.1667 3.62744 14.9559 3.25237 14.5809C2.8773 14.2058 2.66659 13.6971 2.66659 13.1667V9.16666C2.66659 8.63623 2.8773 8.12752 3.25237 7.75245C3.62744 7.37738 4.13615 7.16666 4.66658 7.16666H11.3333C11.8637 7.16666 12.3724 7.37738 12.7475 7.75245C13.1225 8.12752 13.3333 8.63623 13.3333 9.16666V13.1667Z" fill="#1C1C1C"/>
<path d="M7.99998 9.83312C7.82317 9.83312 7.6536 9.90336 7.52858 10.0284C7.40355 10.1534 7.33331 10.323 7.33331 10.4998V11.8331C7.33331 12.0099 7.40355 12.1795 7.52858 12.3045C7.6536 12.4295 7.82317 12.4998 7.99998 12.4998C8.1768 12.4998 8.34637 12.4295 8.47139 12.3045C8.59642 12.1795 8.66665 12.0099 8.66665 11.8331V10.4998C8.66665 10.323 8.59642 10.1534 8.47139 10.0284C8.34637 9.90336 8.1768 9.83312 7.99998 9.83312Z" fill="#1C1C1C"/>
</g>
<g clip-path="url(#clip1_50_239)">
<path d="M11.3334 5.83392H4.66677V5.16725C4.66656 4.42819 4.91198 3.71001 5.36445 3.12563C5.81691 2.54126 6.45075 2.12382 7.16632 1.93896C7.88189 1.75409 8.63861 1.81228 9.31751 2.10437C9.9964 2.39647 10.559 2.9059 10.9168 3.55259C10.9593 3.62915 11.0164 3.69659 11.085 3.75105C11.1536 3.80552 11.2322 3.84595 11.3164 3.87003C11.4006 3.89411 11.4887 3.90137 11.5757 3.8914C11.6627 3.88143 11.7469 3.85442 11.8234 3.81192C11.9 3.76941 11.9674 3.71225 12.0219 3.64368C12.0764 3.57511 12.1168 3.49649 12.1409 3.4123C12.165 3.3281 12.1722 3.23999 12.1623 3.15299C12.1523 3.066 12.1253 2.98181 12.0828 2.90525C11.5816 2.00013 10.7939 1.2872 9.84346 0.878528C8.893 0.469857 7.83368 0.388619 6.83202 0.647582C5.83035 0.906546 4.94315 1.49103 4.30985 2.30915C3.67656 3.12728 3.33309 4.13266 3.33344 5.16725V6.11659C2.73968 6.37572 2.2343 6.80227 1.8791 7.34406C1.52391 7.88585 1.33429 8.51941 1.33344 9.16725V13.1673C1.33449 14.051 1.68602 14.8982 2.31091 15.5231C2.93581 16.148 3.78304 16.4995 4.66677 16.5006H11.3334C12.2172 16.4995 13.0644 16.148 13.6893 15.5231C14.3142 14.8982 14.6657 14.051 14.6668 13.1673V9.16725C14.6657 8.28352 14.3142 7.43629 13.6893 6.8114C13.0644 6.18651 12.2172 5.83498 11.3334 5.83392ZM13.3334 13.1673C13.3334 13.6977 13.1227 14.2064 12.7476 14.5815C12.3726 14.9565 11.8639 15.1673 11.3334 15.1673H4.66677C4.13634 15.1673 3.62763 14.9565 3.25255 14.5815C2.87748 14.2064 2.66677 13.6977 2.66677 13.1673V9.16725C2.66677 8.63682 2.87748 8.12811 3.25255 7.75304C3.62763 7.37797 4.13634 7.16725 4.66677 7.16725H11.3334C11.8639 7.16725 12.3726 7.37797 12.7476 7.75304C13.1227 8.12811 13.3334 8.63682 13.3334 9.16725V13.1673Z" fill="#1C1C1C"/>
<path d="M8.00011 9.83374C7.82329 9.83374 7.65372 9.90398 7.5287 10.029C7.40367 10.154 7.33344 10.3236 7.33344 10.5004V11.8337C7.33344 12.0105 7.40367 12.1801 7.5287 12.3051C7.65372 12.4302 7.82329 12.5004 8.00011 12.5004C8.17692 12.5004 8.34649 12.4302 8.47151 12.3051C8.59654 12.1801 8.66678 12.0105 8.66678 11.8337V10.5004C8.66678 10.3236 8.59654 10.154 8.47151 10.029C8.34649 9.90398 8.17692 9.83374 8.00011 9.83374Z" fill="#1C1C1C"/>
</g>
<defs>
<clipPath id="clip0_50_239">
<rect width="16" height="16" fill="white" transform="translate(0 0.5)"/>
</clipPath>
<clipPath id="clip1_50_239">
<rect width="16" height="16" fill="white" transform="translate(0 0.5)"/>
</clipPath>
</defs>
</svg>
