<svg width="16" height="17" viewBox="0 0 16 17" fill="none" xmlns="http://www.w3.org/2000/svg">
<g clip-path="url(#clip0_50_218)">
<path d="M8 8.49996C8.79113 8.49996 9.56449 8.26536 10.2223 7.82583C10.8801 7.38631 11.3928 6.76159 11.6955 6.03069C11.9983 5.29979 12.0775 4.49552 11.9231 3.71959C11.7688 2.94367 11.3878 2.23094 10.8284 1.67153C10.269 1.11212 9.55629 0.731156 8.78036 0.576815C8.00444 0.422474 7.20017 0.501687 6.46927 0.804438C5.73836 1.10719 5.11365 1.61988 4.67412 2.27768C4.2346 2.93547 4 3.70883 4 4.49996C4.00106 5.5605 4.42283 6.5773 5.17274 7.32721C5.92266 8.07713 6.93946 8.4989 8 8.49996ZM8 1.83329C8.52742 1.83329 9.04299 1.98969 9.48152 2.2827C9.92005 2.57572 10.2618 2.9922 10.4637 3.47947C10.6655 3.96674 10.7183 4.50291 10.6154 5.0202C10.5125 5.53748 10.2586 6.01263 9.88562 6.38557C9.51268 6.75851 9.03752 7.01249 8.52024 7.11538C8.00296 7.21828 7.46678 7.16547 6.97951 6.96364C6.49224 6.7618 6.07577 6.42001 5.78275 5.98148C5.48973 5.54295 5.33333 5.02737 5.33333 4.49996C5.33333 3.79271 5.61428 3.11443 6.11438 2.61434C6.61448 2.11424 7.29276 1.83329 8 1.83329Z" fill="#1C1C1C"/>
<path d="M8 9.83374C6.40924 9.8355 4.88414 10.4682 3.75931 11.593C2.63447 12.7179 2.00176 14.243 2 15.8337C2 16.0106 2.07024 16.1801 2.19526 16.3051C2.32029 16.4302 2.48986 16.5004 2.66667 16.5004C2.84348 16.5004 3.01305 16.4302 3.13807 16.3051C3.2631 16.1801 3.33333 16.0106 3.33333 15.8337C3.33333 14.5961 3.825 13.4091 4.70017 12.5339C5.57534 11.6587 6.76232 11.1671 8 11.1671C9.23768 11.1671 10.4247 11.6587 11.2998 12.5339C12.175 13.4091 12.6667 14.5961 12.6667 15.8337C12.6667 16.0106 12.7369 16.1801 12.8619 16.3051C12.987 16.4302 13.1565 16.5004 13.3333 16.5004C13.5101 16.5004 13.6797 16.4302 13.8047 16.3051C13.9298 16.1801 14 16.0106 14 15.8337C13.9982 14.243 13.3655 12.7179 12.2407 11.593C11.1159 10.4682 9.59076 9.8355 8 9.83374Z" fill="#1C1C1C"/>
</g>
<defs>
<clipPath id="clip0_50_218">
<rect width="16" height="16" fill="white" transform="translate(0 0.5)"/>
</clipPath>
</defs>
</svg>
