<svg width="16" height="17" viewBox="0 0 16 17" fill="none" xmlns="http://www.w3.org/2000/svg">
<g clip-path="url(#clip0_68_250)">
<path d="M15.5139 6.77921C14.9121 5.79369 14.1529 4.91338 13.2666 4.17321L15.1332 2.30654C15.2547 2.18081 15.3219 2.01241 15.3204 1.83761C15.3188 1.66281 15.2487 1.4956 15.1251 1.372C15.0015 1.24839 14.8343 1.17828 14.6595 1.17676C14.4847 1.17524 14.3163 1.24244 14.1906 1.36388L12.1606 3.39654C10.9022 2.64909 9.46353 2.25952 7.99991 2.26988C3.87258 2.26988 1.52058 5.09521 0.485912 6.77921C0.166264 7.29621 -0.00305176 7.89204 -0.00305176 8.49988C-0.00305176 9.10772 0.166264 9.70354 0.485912 10.2205C1.08775 11.2061 1.8469 12.0864 2.73325 12.8265L0.866579 14.6932C0.802905 14.7547 0.752117 14.8283 0.717178 14.9096C0.682239 14.9909 0.663848 15.0784 0.663078 15.1669C0.662309 15.2555 0.679177 15.3432 0.712698 15.4252C0.746218 15.5071 0.79572 15.5815 0.858315 15.6441C0.920911 15.7067 0.995345 15.7562 1.07728 15.7898C1.15921 15.8233 1.24699 15.8401 1.33551 15.8394C1.42403 15.8386 1.51151 15.8202 1.59285 15.7853C1.67418 15.7503 1.74775 15.6996 1.80925 15.6359L3.84391 13.6012C5.10076 14.3485 6.53769 14.7388 7.99991 14.7299C12.1272 14.7299 14.4792 11.9045 15.5139 10.2205C15.8336 9.70354 16.0029 9.10772 16.0029 8.49988C16.0029 7.89204 15.8336 7.29621 15.5139 6.77921ZM1.62191 9.52254C1.432 9.21524 1.33141 8.86113 1.33141 8.49988C1.33141 8.13863 1.432 7.78451 1.62191 7.47721C2.51125 6.03321 4.52125 3.60321 7.99991 3.60321C9.10676 3.59701 10.1981 3.86377 11.1772 4.37988L9.83525 5.72188C9.1952 5.29694 8.42785 5.10654 7.6634 5.18297C6.89895 5.25941 6.18449 5.59797 5.64125 6.14121C5.098 6.68445 4.75944 7.39892 4.68301 8.16336C4.60658 8.92781 4.79698 9.69516 5.22191 10.3352L3.68191 11.8752C2.86531 11.215 2.16847 10.4192 1.62191 9.52254ZM9.99991 8.49988C9.99991 9.03031 9.7892 9.53902 9.41413 9.91409C9.03905 10.2892 8.53035 10.4999 7.99991 10.4999C7.70292 10.4987 7.41004 10.4304 7.14325 10.2999L9.79991 7.64321C9.93039 7.91001 9.99876 8.20289 9.99991 8.49988ZM5.99991 8.49988C5.99991 7.96944 6.21063 7.46074 6.5857 7.08566C6.96077 6.71059 7.46948 6.49988 7.99991 6.49988C8.2969 6.50103 8.58978 6.5694 8.85658 6.69988L6.19991 9.35654C6.06944 9.08974 6.00106 8.79687 5.99991 8.49988ZM14.3779 9.52254C13.4886 10.9665 11.4786 13.3965 7.99991 13.3965C6.89306 13.4027 5.80175 13.136 4.82258 12.6199L6.16458 11.2779C6.80462 11.7028 7.57197 11.8932 8.33642 11.8168C9.10087 11.7403 9.81534 11.4018 10.3586 10.8585C10.9018 10.3153 11.2404 9.60084 11.3168 8.83639C11.3932 8.07194 11.2028 7.30459 10.7779 6.66454L12.3179 5.12454C13.1345 5.78473 13.8314 6.58057 14.3779 7.47721C14.5678 7.78451 14.6684 8.13863 14.6684 8.49988C14.6684 8.86113 14.5678 9.21524 14.3779 9.52254Z" fill="#374957"/>
</g>
<defs>
<clipPath id="clip0_68_250">
<rect width="16" height="16" fill="white" transform="translate(0 0.5)"/>
</clipPath>
</defs>
</svg>
